REM DIRINDEX 1\2,1\3,1\4,1\5
REM DIRNAME "folder01","folder02","folder03","folder04","folder05"
TITLE ""
FILE "P1Q_t_1310-1319.mp3" MP3
  TRACK 01 AUDIO
    TITLE "3:cjc173_4900"
    INDEX 01 00:00:00
  TRACK 02 AUDIO
    TITLE "0:"
    INDEX 01 00:01:41
  TRACK 03 AUDIO
    TITLE "4:cjc173_4901"
    INDEX 01 00:01:63
  TRACK 04 AUDIO
    TITLE "0:"
    INDEX 01 00:06:34
  TRACK 05 AUDIO
    TITLE "5:cjc173_4902"
    INDEX 01 00:06:54
  TRACK 06 AUDIO
    TITLE "0:"
    INDEX 01 00:11:75
  TRACK 07 AUDIO
    TITLE "3:cjc173_4903"
    INDEX 01 00:12:45
  TRACK 08 AUDIO
    TITLE "0:"
    INDEX 01 00:13:64
  TRACK 09 AUDIO
    TITLE "4:cjc173_4904"
    INDEX 01 00:14:10
  TRACK 10 AUDIO
    TITLE "0:"
    INDEX 01 00:16:58
  TRACK 11 AUDIO
    TITLE "5:cjc173_4905"
    INDEX 01 00:17:05
  TRACK 12 AUDIO
    TITLE "0:"
    INDEX 01 00:22:12
  TRACK 13 AUDIO
    TITLE "3:cjc173_4906"
    INDEX 01 00:22:57
  TRACK 14 AUDIO
    TITLE "0:"
    INDEX 01 00:23:68
  TRACK 15 AUDIO
    TITLE "4:cjc173_4907"
    INDEX 01 00:24:13
  TRACK 16 AUDIO
    TITLE "0:"
    INDEX 01 00:27:05
  TRACK 17 AUDIO
    TITLE "5:cjc173_4908"
    INDEX 01 00:27:25
  TRACK 18 AUDIO
    TITLE "0:"
    INDEX 01 00:31:30
  TRACK 19 AUDIO
    TITLE "3:cjc173_4909"
    INDEX 01 00:32:01
  TRACK 20 AUDIO
    TITLE "0:"
    INDEX 01 00:33:33
  TRACK 21 AUDIO
    TITLE "4:cjc173_4910"
    INDEX 01 00:33:55
  TRACK 22 AUDIO
    TITLE "0:"
    INDEX 01 00:35:20
  TRACK 23 AUDIO
    TITLE "5:cjc173_4911"
    INDEX 01 00:35:40
  TRACK 24 AUDIO
    TITLE "0:"
    INDEX 01 00:40:22
  TRACK 25 AUDIO
    TITLE "3:cjc173_4912"
    INDEX 01 00:40:69
  TRACK 26 AUDIO
    TITLE "0:"
    INDEX 01 00:42:11
  TRACK 27 AUDIO
    TITLE "4:cjc173_4913"
    INDEX 01 00:42:30
  TRACK 28 AUDIO
    TITLE "0:"
    INDEX 01 00:45:23
  TRACK 29 AUDIO
    TITLE "5:cjc173_4914"
    INDEX 01 00:45:42
  TRACK 30 AUDIO
    TITLE "0:"
    INDEX 01 00:50:06
  TRACK 31 AUDIO
    TITLE "3:cjc173_4915"
    INDEX 01 00:50:51
  TRACK 32 AUDIO
    TITLE "0:"
    INDEX 01 00:51:66
  TRACK 33 AUDIO
    TITLE "4:cjc173_4916"
    INDEX 01 00:52:11
  TRACK 34 AUDIO
    TITLE "0:"
    INDEX 01 00:54:71
  TRACK 35 AUDIO
    TITLE "5:cjc173_4917"
    INDEX 01 00:55:15
  TRACK 36 AUDIO
    TITLE "0:"
    INDEX 01 01:00:75
  TRACK 37 AUDIO
    TITLE "3:cjc173_4918"
    INDEX 01 01:01:49
  TRACK 38 AUDIO
    TITLE "0:"
    INDEX 01 01:02:54
  TRACK 39 AUDIO
    TITLE "4:cjc173_4919"
    INDEX 01 01:02:74
  TRACK 40 AUDIO
    TITLE "0:"
    INDEX 01 01:04:12
  TRACK 41 AUDIO
    TITLE "5:cjc173_4920"
    INDEX 01 01:04:32
  TRACK 42 AUDIO
    TITLE "0:"
    INDEX 01 01:09:21
  TRACK 43 AUDIO
    TITLE "3:cjc173_4921"
    INDEX 01 01:09:66
  TRACK 44 AUDIO
    TITLE "0:"
    INDEX 01 01:11:14
  TRACK 45 AUDIO
    TITLE "4:cjc173_4922"
    INDEX 01 01:11:36
  TRACK 46 AUDIO
    TITLE "0:"
    INDEX 01 01:14:62
  TRACK 47 AUDIO
    TITLE "5:cjc173_4923"
    INDEX 01 01:15:06
  TRACK 48 AUDIO
    TITLE "0:"
    INDEX 01 01:19:73
  TRACK 49 AUDIO
    TITLE "3:cjc173_4924"
    INDEX 01 01:20:45
  TRACK 50 AUDIO
    TITLE "0:"
    INDEX 01 01:21:58
  TRACK 51 AUDIO
    TITLE "4:cjc173_4925"
    INDEX 01 01:22:04
  TRACK 52 AUDIO
    TITLE "0:"
    INDEX 01 01:23:51
  TRACK 53 AUDIO
    TITLE "5:cjc173_4926"
    INDEX 01 01:23:68
  TRACK 54 AUDIO
    TITLE "0:"
    INDEX 01 01:28:07
  TRACK 55 AUDIO
    TITLE "3:cjc173_4927"
    INDEX 01 01:28:60
  TRACK 56 AUDIO
    TITLE "0:"
    INDEX 01 01:29:57
  TRACK 57 AUDIO
    TITLE "4:cjc173_4928"
    INDEX 01 01:30:04
  TRACK 58 AUDIO
    TITLE "0:"
    INDEX 01 01:32:12
  TRACK 59 AUDIO
    TITLE "5:cjc173_4929"
    INDEX 01 01:32:32
  TRACK 60 AUDIO
    TITLE "0:"
    INDEX 01 01:36:30
